<svg width="58" height="58" viewBox="0 0 58 58" fill="none" xmlns="http://www.w3.org/2000/svg">
<g clip-path="url(#clip0_42_193)" filter="url(#filter0_d_42_193)">
<circle cx="29" cy="25" r="25" fill="#F8F8F8"/>
<path d="M37.0918 26.6961C36.8379 26.6961 36.5724 26.6153 36.3185 26.5576C35.8047 26.4427 35.2995 26.2923 34.8065 26.1074C34.2711 25.9126 33.6825 25.9228 33.1541 26.1358C32.6256 26.3489 32.1947 26.7499 31.9441 27.2616L31.6902 27.7925C30.5693 27.1568 29.5337 26.3811 28.6085 25.4842C27.7115 24.5589 26.9359 23.5234 26.3001 22.4025L26.8311 22.1601C27.3428 21.9096 27.7438 21.4786 27.9568 20.9502C28.1699 20.4217 28.18 19.8332 27.9852 19.2977C27.8019 18.8003 27.6516 18.2914 27.5351 17.7742C27.4774 17.5203 27.4312 17.2548 27.3966 17.0009C27.2564 16.1879 26.8306 15.4517 26.1958 14.9248C25.561 14.3979 24.7589 14.115 23.934 14.127H20.4599C19.972 14.1263 19.4894 14.2288 19.0439 14.4277C18.5983 14.6266 18.1999 14.9175 17.8746 15.2811C17.5425 15.6547 17.2953 16.0957 17.1499 16.5739C17.0044 17.052 16.9642 17.556 17.032 18.0512C17.6594 22.8551 19.8542 27.3178 23.2762 30.7473C26.7057 34.1692 31.1683 36.364 35.9722 36.9914C36.122 37.0029 36.2725 37.0029 36.4224 36.9914C37.2735 36.9927 38.0952 36.6804 38.7307 36.1142C39.0944 35.7889 39.3852 35.3905 39.5842 34.9449C39.7831 34.4994 39.8856 34.0168 39.8849 33.5289V30.0663C39.8787 29.2688 39.5974 28.4979 39.0885 27.8838C38.5795 27.2698 37.8743 26.8502 37.0918 26.6961ZM37.6573 33.6212C37.657 33.7822 37.6229 33.9414 37.5573 34.0885C37.4917 34.2356 37.396 34.3674 37.2765 34.4753C37.15 34.5905 36.9994 34.6762 36.8357 34.7261C36.672 34.776 36.4993 34.7889 36.33 34.7638C32.0229 34.2013 28.0202 32.2385 24.9382 29.1776C21.8536 26.093 19.8737 22.0763 19.3058 17.7511C19.2807 17.5818 19.2936 17.4091 19.3435 17.2454C19.3934 17.0817 19.4791 16.9312 19.5943 16.8047C19.7035 16.6837 19.8371 16.5872 19.9863 16.5215C20.1355 16.4559 20.2969 16.4226 20.4599 16.4238H23.9225C24.1893 16.4173 24.4501 16.5034 24.6606 16.6676C24.871 16.8317 25.0181 17.0637 25.0767 17.3241C25.0767 17.6357 25.1806 17.9589 25.2498 18.2705C25.3832 18.8751 25.5607 19.4692 25.7807 20.0479L24.1649 20.8097C23.8871 20.9372 23.6713 21.1696 23.5647 21.4561C23.4493 21.7371 23.4493 22.0522 23.5647 22.3332C25.2258 25.8913 28.0859 28.7514 31.644 30.4125C31.925 30.528 32.2402 30.528 32.5212 30.4125C32.8076 30.3059 33.0401 30.0901 33.1675 29.8124L33.8947 28.1965C34.4901 28.4136 35.0993 28.591 35.7183 28.7274C36.0184 28.7967 36.3416 28.8544 36.6532 28.9006C36.9136 28.9592 37.1456 29.1062 37.3097 29.3167C37.4738 29.5271 37.56 29.7879 37.5535 30.0547L37.6573 33.6212ZM30.8476 14C30.5822 14 30.3052 14 30.0397 14C29.7336 14.026 29.4504 14.1726 29.2523 14.4074C29.0542 14.6423 28.9576 14.9462 28.9836 15.2523C29.0096 15.5584 29.1562 15.8416 29.391 16.0397C29.6259 16.2377 29.9298 16.3344 30.2359 16.3084H30.8476C32.6843 16.3084 34.4457 17.038 35.7444 18.3367C37.0431 19.6354 37.7728 21.3968 37.7728 23.2335C37.7728 23.4413 37.7728 23.6375 37.7728 23.8452C37.7472 24.1497 37.8434 24.4519 38.0402 24.6856C38.2371 24.9193 38.5187 25.0653 38.8231 25.0917H38.9154C39.2043 25.0929 39.4832 24.9857 39.6969 24.7912C39.9106 24.5967 40.0436 24.3292 40.0696 24.0414C40.0696 23.776 40.0696 23.499 40.0696 23.2335C40.0696 20.7866 39.0984 18.4398 37.3692 16.7085C35.6401 14.9772 33.2945 14.0031 30.8476 14ZM33.156 23.2335C33.156 23.5396 33.2776 23.8332 33.4941 24.0496C33.7105 24.2661 34.0041 24.3877 34.3102 24.3877C34.6163 24.3877 34.9099 24.2661 35.1263 24.0496C35.3428 23.8332 35.4644 23.5396 35.4644 23.2335C35.4644 22.0091 34.978 20.8348 34.1122 19.969C33.2464 19.1032 32.0721 18.6168 30.8476 18.6168C30.5415 18.6168 30.2479 18.7384 30.0315 18.9548C29.815 19.1713 29.6934 19.4648 29.6934 19.7709C29.6934 20.077 29.815 20.3706 30.0315 20.5871C30.2479 20.8035 30.5415 20.9251 30.8476 20.9251C31.4598 20.9251 32.047 21.1683 32.4799 21.6012C32.9128 22.0341 33.156 22.6213 33.156 23.2335Z" fill="#535353"/>
</g>
<defs>
<filter id="filter0_d_42_193" x="0" y="0" width="58" height="58" filterUnits="userSpaceOnUse" color-interpolation-filters="sRGB">
<feFlood flood-opacity="0" result="BackgroundImageFix"/>
<feColorMatrix in="SourceAlpha" type="matrix" values="0 0 0 0 0 0 0 0 0 0 0 0 0 0 0 0 0 0 127 0" result="hardAlpha"/>
<feOffset dy="4"/>
<feGaussianBlur stdDeviation="2"/>
<feComposite in2="hardAlpha" operator="out"/>
<feColorMatrix type="matrix" values="0 0 0 0 0 0 0 0 0 0 0 0 0 0 0 0 0 0 0.25 0"/>
<feBlend mode="normal" in2="BackgroundImageFix" result="effect1_dropShadow_42_193"/>
<feBlend mode="normal" in="SourceGraphic" in2="effect1_dropShadow_42_193" result="shape"/>
</filter>
<clipPath id="clip0_42_193">
<rect width="50" height="50" fill="white" transform="translate(4)"/>
</clipPath>
</defs>
</svg>
